<?xml version="1.0" encoding="UTF-8" standalone="no"?>
<!DOCTYPE svg PUBLIC "-//W3C//DTD SVG 1.1//EN"
 "http://www.w3.org/Graphics/SVG/1.1/DTD/svg11.dtd">
<!-- Generated by graphviz version 2.34.0 (20131121.1837)
 -->
<!-- Title: lassoapp Pages: 1 -->
<svg width="630pt" height="278pt"
 viewBox="0.00 0.00 630.00 278.00" xmlns="http://www.w3.org/2000/svg" xmlns:xlink="http://www.w3.org/1999/xlink">
<g id="graph0" class="graph" transform="scale(1 1) rotate(0) translate(4 274)">
<title>lassoapp</title>
<polygon fill="white" stroke="white" points="-4,4 -4,-274 626,-274 626,4 -4,4"/>
<!-- a -->
<g id="node1" class="node"><title>a</title>
<polygon fill="none" stroke="black" points="328,-270 252,-270 252,-234 328,-234 328,-270"/>
<text text-anchor="middle" x="290" y="-255.2" font-family="Arial,sans-Serif" font-size="11.00">Root Node</text>
<text text-anchor="middle" x="290" y="-243.2" font-family="Arial,sans-Serif" font-size="11.00">/lasso9</text>
</g>
<!-- b -->
<g id="node2" class="node"><title>b</title>
<polygon fill="none" stroke="black" points="198.25,-198 91.75,-198 91.75,-162 198.25,-162 198.25,-198"/>
<text text-anchor="middle" x="145" y="-183.2" font-family="Arial,sans-Serif" font-size="11.00">LassoApp Node</text>
<text text-anchor="middle" x="145" y="-171.2" font-family="Arial,sans-Serif" font-size="11.00">/lasso9/app1</text>
</g>
<!-- a&#45;&gt;b -->
<g id="edge1" class="edge"><title>a&#45;&gt;b</title>
<path fill="none" stroke="black" d="M254.529,-233.876C234.883,-224.392 210.278,-212.513 189.368,-202.419"/>
<polygon fill="black" stroke="black" points="190.883,-199.264 180.356,-198.068 187.84,-205.568 190.883,-199.264"/>
</g>
<!-- c -->
<g id="node3" class="node"><title>c</title>
<polygon fill="none" stroke="black" points="343.25,-198 236.75,-198 236.75,-162 343.25,-162 343.25,-198"/>
<text text-anchor="middle" x="290" y="-183.2" font-family="Arial,sans-Serif" font-size="11.00">LassoApp Node</text>
<text text-anchor="middle" x="290" y="-171.2" font-family="Arial,sans-Serif" font-size="11.00">/lasso9/app2</text>
</g>
<!-- a&#45;&gt;c -->
<g id="edge2" class="edge"><title>a&#45;&gt;c</title>
<path fill="none" stroke="black" d="M290,-233.697C290,-225.983 290,-216.712 290,-208.112"/>
<polygon fill="black" stroke="black" points="293.5,-208.104 290,-198.104 286.5,-208.104 293.5,-208.104"/>
</g>
<!-- d -->
<g id="node4" class="node"><title>d</title>
<polygon fill="none" stroke="black" points="540.25,-198 433.75,-198 433.75,-162 540.25,-162 540.25,-198"/>
<text text-anchor="middle" x="487" y="-183.2" font-family="Arial,sans-Serif" font-size="11.00">LassoApp Node</text>
<text text-anchor="middle" x="487" y="-171.2" font-family="Arial,sans-Serif" font-size="11.00">/lasso9/app3</text>
</g>
<!-- a&#45;&gt;d -->
<g id="edge3" class="edge"><title>a&#45;&gt;d</title>
<path fill="none" stroke="black" d="M328.451,-237.337C357.068,-227.169 396.618,-213.115 429.058,-201.589"/>
<polygon fill="black" stroke="black" points="430.626,-204.746 438.877,-198.099 428.283,-198.15 430.626,-204.746"/>
</g>
<!-- h -->
<g id="node8" class="node"><title>h</title>
<polygon fill="none" stroke="black" points="54,-126 0,-126 0,-90 54,-90 54,-126"/>
<text text-anchor="middle" x="27" y="-105.2" font-family="Arial,sans-Serif" font-size="11.00">...</text>
</g>
<!-- b&#45;&gt;h -->
<g id="edge4" class="edge"><title>b&#45;&gt;h</title>
<path fill="none" stroke="black" d="M116.134,-161.876C100.245,-152.45 80.3701,-140.66 63.4223,-130.606"/>
<polygon fill="black" stroke="black" points="64.7382,-127.318 54.3519,-125.226 61.1668,-133.338 64.7382,-127.318"/>
</g>
<!-- i -->
<g id="node9" class="node"><title>i</title>
<polygon fill="none" stroke="black" points="126,-126 72,-126 72,-90 126,-90 126,-126"/>
<text text-anchor="middle" x="99" y="-105.2" font-family="Arial,sans-Serif" font-size="11.00">...</text>
</g>
<!-- b&#45;&gt;i -->
<g id="edge5" class="edge"><title>b&#45;&gt;i</title>
<path fill="none" stroke="black" d="M133.629,-161.697C128.282,-153.559 121.796,-143.689 115.889,-134.701"/>
<polygon fill="black" stroke="black" points="118.657,-132.539 110.24,-126.104 112.807,-136.384 118.657,-132.539"/>
</g>
<!-- j -->
<g id="node10" class="node"><title>j</title>
<polygon fill="none" stroke="black" points="198,-126 144,-126 144,-90 198,-90 198,-126"/>
<text text-anchor="middle" x="171" y="-105.2" font-family="Arial,sans-Serif" font-size="11.00">...</text>
</g>
<!-- b&#45;&gt;j -->
<g id="edge6" class="edge"><title>b&#45;&gt;j</title>
<path fill="none" stroke="black" d="M151.427,-161.697C154.355,-153.813 157.887,-144.304 161.14,-135.546"/>
<polygon fill="black" stroke="black" points="164.446,-136.697 164.647,-126.104 157.884,-134.26 164.446,-136.697"/>
</g>
<!-- e -->
<g id="node5" class="node"><title>e</title>
<path fill="none" stroke="black" d="M104.5,-1C104.5,-1 191.5,-1 191.5,-1 197.5,-1 203.5,-7 203.5,-13 203.5,-13 203.5,-41 203.5,-41 203.5,-47 197.5,-53 191.5,-53 191.5,-53 104.5,-53 104.5,-53 98.5,-53 92.5,-47 92.5,-41 92.5,-41 92.5,-13 92.5,-13 92.5,-7 98.5,-1 104.5,-1"/>
<text text-anchor="middle" x="148" y="-40.2" font-family="Arial,sans-Serif" font-size="11.00">Node</text>
<text text-anchor="middle" x="148" y="-28.2" font-family="Arial,sans-Serif" font-size="11.00">/lasso9/app2/abc</text>
<polyline fill="none" stroke="black" points="92.5,-21 203.5,-21 "/>
<text text-anchor="middle" x="122" y="-8.2" font-family="Arial,sans-Serif" font-size="11.00">JPEG</text>
<polyline fill="none" stroke="black" points="151.5,-1 151.5,-21 "/>
<text text-anchor="middle" x="177.5" y="-8.2" font-family="Arial,sans-Serif" font-size="11.00">PDF</text>
</g>
<!-- c&#45;&gt;e -->
<g id="edge7" class="edge"><title>c&#45;&gt;e</title>
<path fill="none" stroke="black" d="M274.139,-161.89C257.473,-143.936 230.47,-114.913 207,-90 197.996,-80.4419 188.177,-70.0943 179.179,-60.6413"/>
<polygon fill="black" stroke="black" points="181.602,-58.1104 172.171,-53.2841 176.534,-62.9387 181.602,-58.1104"/>
</g>
<!-- f -->
<g id="node6" class="node"><title>f</title>
<path fill="none" stroke="black" d="M234,-1C234,-1 346,-1 346,-1 352,-1 358,-7 358,-13 358,-13 358,-41 358,-41 358,-47 352,-53 346,-53 346,-53 234,-53 234,-53 228,-53 222,-47 222,-41 222,-41 222,-13 222,-13 222,-7 228,-1 234,-1"/>
<text text-anchor="middle" x="290" y="-40.2" font-family="Arial,sans-Serif" font-size="11.00">Node</text>
<text text-anchor="middle" x="290" y="-28.2" font-family="Arial,sans-Serif" font-size="11.00">/lasso9/app2/def</text>
<polyline fill="none" stroke="black" points="222,-21 358,-21 "/>
<text text-anchor="middle" x="245.5" y="-8.2" font-family="Arial,sans-Serif" font-size="11.00">HTML</text>
<polyline fill="none" stroke="black" points="269,-1 269,-21 "/>
<text text-anchor="middle" x="289.5" y="-8.2" font-family="Arial,sans-Serif" font-size="11.00">XML</text>
<polyline fill="none" stroke="black" points="310,-1 310,-21 "/>
<text text-anchor="middle" x="334" y="-8.2" font-family="Arial,sans-Serif" font-size="11.00">JSON</text>
</g>
<!-- c&#45;&gt;f -->
<g id="edge8" class="edge"><title>c&#45;&gt;f</title>
<path fill="none" stroke="black" d="M290,-161.972C290,-138.238 290,-94.6397 290,-63.6279"/>
<polygon fill="black" stroke="black" points="293.5,-63.2368 290,-53.2368 286.5,-63.2368 293.5,-63.2368"/>
</g>
<!-- g -->
<g id="node7" class="node"><title>g</title>
<path fill="none" stroke="black" d="M388.5,-1C388.5,-1 473.5,-1 473.5,-1 479.5,-1 485.5,-7 485.5,-13 485.5,-13 485.5,-41 485.5,-41 485.5,-47 479.5,-53 473.5,-53 473.5,-53 388.5,-53 388.5,-53 382.5,-53 376.5,-47 376.5,-41 376.5,-41 376.5,-13 376.5,-13 376.5,-7 382.5,-1 388.5,-1"/>
<text text-anchor="middle" x="431" y="-40.2" font-family="Arial,sans-Serif" font-size="11.00">Node</text>
<text text-anchor="middle" x="431" y="-28.2" font-family="Arial,sans-Serif" font-size="11.00">/lasso9/app2/xyz</text>
<polyline fill="none" stroke="black" points="376.5,-21 485.5,-21 "/>
<text text-anchor="middle" x="405" y="-8.2" font-family="Arial,sans-Serif" font-size="11.00">HTML</text>
<polyline fill="none" stroke="black" points="433.5,-1 433.5,-21 "/>
<text text-anchor="middle" x="459.5" y="-8.2" font-family="Arial,sans-Serif" font-size="11.00">RSS</text>
</g>
<!-- c&#45;&gt;g -->
<g id="edge9" class="edge"><title>c&#45;&gt;g</title>
<path fill="none" stroke="black" d="M305.9,-161.972C328.74,-137.512 371.28,-91.9558 400.353,-60.8203"/>
<polygon fill="black" stroke="black" points="403.168,-62.9345 407.435,-53.2368 398.051,-58.157 403.168,-62.9345"/>
</g>
<!-- k -->
<g id="node11" class="node"><title>k</title>
<polygon fill="none" stroke="black" points="478,-126 424,-126 424,-90 478,-90 478,-126"/>
<text text-anchor="middle" x="451" y="-105.2" font-family="Arial,sans-Serif" font-size="11.00">...</text>
</g>
<!-- d&#45;&gt;k -->
<g id="edge10" class="edge"><title>d&#45;&gt;k</title>
<path fill="none" stroke="black" d="M478.101,-161.697C474.003,-153.728 469.051,-144.1 464.507,-135.264"/>
<polygon fill="black" stroke="black" points="467.483,-133.396 459.797,-126.104 461.258,-136.598 467.483,-133.396"/>
</g>
<!-- l -->
<g id="node12" class="node"><title>l</title>
<polygon fill="none" stroke="black" points="550,-126 496,-126 496,-90 550,-90 550,-126"/>
<text text-anchor="middle" x="523" y="-105.2" font-family="Arial,sans-Serif" font-size="11.00">...</text>
</g>
<!-- d&#45;&gt;l -->
<g id="edge11" class="edge"><title>d&#45;&gt;l</title>
<path fill="none" stroke="black" d="M495.899,-161.697C499.997,-153.728 504.949,-144.1 509.493,-135.264"/>
<polygon fill="black" stroke="black" points="512.742,-136.598 514.203,-126.104 506.517,-133.396 512.742,-136.598"/>
</g>
<!-- m -->
<g id="node13" class="node"><title>m</title>
<polygon fill="none" stroke="black" points="622,-126 568,-126 568,-90 622,-90 622,-126"/>
<text text-anchor="middle" x="595" y="-105.2" font-family="Arial,sans-Serif" font-size="11.00">...</text>
</g>
<!-- d&#45;&gt;m -->
<g id="edge12" class="edge"><title>d&#45;&gt;m</title>
<path fill="none" stroke="black" d="M513.42,-161.876C527.41,-152.808 544.776,-141.552 559.886,-131.759"/>
<polygon fill="black" stroke="black" points="561.991,-134.566 568.479,-126.19 558.183,-128.692 561.991,-134.566"/>
</g>
</g>
</svg>
